<?xml version="1.0" encoding="utf-8"?>
<!DOCTYPE svg PUBLIC "-//W3C//DTD SVG 1.1//EN" "http://www.w3.org/Graphics/SVG/1.1/DTD/svg11.dtd">
<svg viewBox="5 5 90 90" version="1.1" xmlns="http://www.w3.org/2000/svg" xmlns:xlink="http://www.w3.org/1999/xlink">
<g fill="#7f7f7f" transform="translate(5.000, 5.000)">
	<path d="M15.796,29 L9.76,23.013 C8.638,21.889 6.822,21.921 5.698,23.041 C4.575,24.161 4.572,25.997 5.691,27.12 L12.57,33.588 C13.108,34.128 13.841,34 14.604,34 L20.2,34 C16.215,39 13.599,45 12.631,51 L2.872,51 C1.285,51 0,52.413 0,54 C0,55.586 1.285,57 2.872,57 L12.207,57 C12.257,62 13.522,67 15.729,71 L13.646,71 C12.883,71 12.151,71.436 11.612,71.977 L4.734,78.942 C3.614,80.065 3.616,81.917 4.739,83.037 C5.301,83.596 6.033,83.892 6.767,83.892 C7.503,83.892 8.24,83.614 8.8,83.051 L14.839,77 L19.477,77 C25.127,84 34,88.544 43,89.055 L43,29 L15.796,29 L15.796,29 Z"></path>
	<path d="M87.128,51 L77.167,51 C75.927,45 72.733,39 68.991,34 L75.396,34 C76.159,34 76.891,34.137 77.43,33.596 L84.309,26.917 C85.428,25.793 85.425,24.085 84.302,22.965 C83.177,21.844 81.361,21.834 80.24,22.958 L74.204,29 L47,29 L47,89.033 C56,88.447 64.713,83 70.363,77 L75.161,77 L81.199,83.059 C81.76,83.622 82.496,83.906 83.232,83.906 C83.966,83.906 84.699,83.627 85.26,83.069 C86.383,81.949 86.385,80.131 85.265,79.008 L78.387,71.977 C77.849,71.436 77.116,71 76.354,71 L74.154,71 C76.388,67 77.671,62 77.721,57 L87.128,57 C88.715,57 90,55.586 90,54 C90,52.413 88.715,51 87.128,51 L87.128,51 Z"></path>
	<path d="M63.579,25 C63.579,18 60.106,12.736 54.892,9.445 L58.642,5.772 C59.764,4.651 59.764,2.87 58.642,1.748 C57.52,0.627 55.703,0.646 54.58,1.768 L49.156,7.202 C47.818,6.896 46.43,6.724 44.999,6.724 C43.568,6.724 42.18,6.903 40.842,7.209 L35.417,1.786 C34.295,0.665 32.478,0.665 31.355,1.786 C30.232,2.907 30.233,4.727 31.355,5.849 L35.105,9.446 C29.894,12.737 26.421,18 26.421,25 L63.579,25 Z"></path>
</g>
</svg>
